<svg width="26" height="11" viewBox="0 0 26 11" fill="none" xmlns="http://www.w3.org/2000/svg">
<path fill-rule="evenodd" clip-rule="evenodd" d="M5.27663 1.43958C4.9906 1.7822 4.53295 2.05244 4.0753 2.01383C4.01809 1.55057 4.24215 1.05836 4.50434 0.754343C4.79038 0.402072 5.29093 0.151138 5.69614 0.131836C5.74381 0.614399 5.55789 1.08731 5.27663 1.43958ZM5.69043 2.10562C5.28725 2.08214 4.91937 2.22836 4.62222 2.34648C4.43099 2.42248 4.26906 2.48685 4.14587 2.48685C4.00762 2.48685 3.839 2.41904 3.64968 2.34291C3.40162 2.24316 3.118 2.12911 2.82059 2.13458C2.13889 2.14423 1.50485 2.53511 1.15685 3.15761C0.44177 4.40263 0.970927 6.24602 1.66217 7.2594C2.00064 7.76127 2.40585 8.31139 2.93977 8.29209C3.17467 8.28311 3.34363 8.21054 3.5185 8.13542C3.71982 8.04895 3.92896 7.95912 4.25551 7.95912C4.57074 7.95912 4.77073 8.04661 4.96271 8.1306C5.14526 8.21045 5.32055 8.28714 5.58079 8.28244C6.13378 8.27278 6.48178 7.78057 6.82025 7.2787C7.18552 6.74007 7.34603 6.21438 7.37039 6.13461L7.37325 6.12538C7.37266 6.12479 7.36815 6.1227 7.36019 6.11901C7.23808 6.06242 6.30481 5.62993 6.29586 4.47019C6.28688 3.49675 7.03611 3.00354 7.15405 2.9259L7.15406 2.9259C7.16123 2.92118 7.16607 2.91799 7.16826 2.91633C6.69154 2.20214 5.94786 2.12493 5.69043 2.10562ZM9.51828 8.22929V0.706129H12.3071C13.7468 0.706129 14.7526 1.70986 14.7526 3.17685C14.7526 4.64385 13.7277 5.65723 12.2689 5.65723H10.6719V8.22929H9.51828ZM10.6726 1.69046H12.0026C13.0037 1.69046 13.5758 2.23093 13.5758 3.18158C13.5758 4.13223 13.0037 4.67753 11.9978 4.67753H10.6726V1.69046ZM18.5617 7.32682C18.2566 7.91555 17.5844 8.28712 16.8598 8.28712C15.7872 8.28712 15.0387 7.64049 15.0387 6.66571C15.0387 5.70058 15.7633 5.14564 17.1029 5.0636L18.5426 4.97674V4.56174C18.5426 3.94888 18.1469 3.61591 17.4414 3.61591C16.8598 3.61591 16.4355 3.91993 16.3497 4.38319H15.3105C15.3438 3.40841 16.2496 2.69904 17.4748 2.69904C18.7953 2.69904 19.6534 3.39876 19.6534 4.48453V8.22921H18.5855V7.32682H18.5617ZM17.1704 7.39435C16.5554 7.39435 16.1645 7.09516 16.1645 6.63672C16.1645 6.16381 16.5411 5.88875 17.2609 5.84532L18.5433 5.76329V6.18794C18.5433 6.89248 17.9522 7.39435 17.1704 7.39435ZM23.1948 8.52369C22.7324 9.84109 22.2032 10.2754 21.0781 10.2754C20.9923 10.2754 20.7063 10.2657 20.6396 10.2464V9.34405C20.7111 9.3537 20.8875 9.36335 20.978 9.36335C21.4881 9.36335 21.7742 9.1462 21.9505 8.5816L22.0554 8.24863L20.1009 2.77154H21.307L22.6656 7.21595H22.6895L24.0481 2.77154H25.2208L23.1948 8.52369Z" fill="#282739"/>
</svg>
