<svg width="26" height="11" viewBox="0 0 26 11" fill="none" xmlns="http://www.w3.org/2000/svg">
<path fill-rule="evenodd" clip-rule="evenodd" d="M12.0946 8.65852V5.71721H13.6127C14.2347 5.71721 14.7598 5.50877 15.1878 5.09768L15.2905 4.99346C16.0724 4.14234 16.021 2.81643 15.1878 2.02899C14.7712 1.61211 14.2005 1.38631 13.6127 1.39789H11.1758V8.65852H12.0946ZM12.0943 4.82558V2.28956H13.6354C13.9665 2.28956 14.2804 2.41694 14.5144 2.64854C15.011 3.1349 15.0224 3.9455 14.543 4.44923C14.3089 4.6982 13.9779 4.83716 13.6354 4.82558H12.0943ZM19.5779 4.07884C19.1841 3.71407 18.6477 3.52879 17.9685 3.52879C17.0953 3.52879 16.439 3.85303 16.0053 4.49572L16.8157 5.01103C17.1125 4.57099 17.5177 4.35097 18.0313 4.35097C18.3566 4.35097 18.6705 4.47256 18.9159 4.69258C19.1556 4.90102 19.2925 5.2021 19.2925 5.52055V5.73478C18.9387 5.53792 18.4936 5.4337 17.9457 5.4337C17.3065 5.4337 16.7929 5.58424 16.4105 5.89111C16.0281 6.19797 15.8341 6.60327 15.8341 7.11858C15.8227 7.58757 16.0224 8.0334 16.3763 8.33448C16.7358 8.65872 17.1924 8.82084 17.7288 8.82084C18.3623 8.82084 18.8645 8.53713 19.2469 7.96971H19.2868V8.65872H20.1657V5.59582C20.1657 4.95313 19.9717 4.44361 19.5779 4.07884ZM17.0833 7.74363C16.8949 7.60467 16.7807 7.37886 16.7807 7.13568C16.7807 6.86356 16.9063 6.63775 17.1518 6.45826C17.4029 6.27877 17.7168 6.18613 18.0879 6.18613C18.6016 6.18034 19.0011 6.29614 19.2865 6.52774C19.2865 6.92146 19.1324 7.26306 18.8299 7.55256C18.5559 7.83048 18.1849 7.98681 17.7968 7.98681C17.5399 7.9926 17.2888 7.90575 17.0833 7.74363ZM22.1401 10.8415L25.2105 3.69091H24.2118L22.7907 7.25754H22.7736L21.3183 3.69091H20.3196L22.3342 8.34026L21.1928 10.8415H22.1401Z" fill="#282739"/>
<path d="M8.92793 5.08118C8.92793 4.79747 8.9051 4.51376 8.85945 4.23584H4.98438V5.83967H7.20441C7.1131 6.35497 6.81633 6.81817 6.3826 7.10767V8.14987H7.70663C8.48278 7.42612 8.92793 6.35497 8.92793 5.08118Z" fill="#4285F4"/>
<path d="M4.98212 9.15737C6.08928 9.15737 7.02523 8.78681 7.70437 8.14991L6.38034 7.10771C6.00938 7.36247 5.5357 7.50722 4.98212 7.50722C3.9092 7.50722 3.00178 6.77189 2.67648 5.7876H1.3125V6.86453C2.00876 8.2715 3.42981 9.15737 4.98212 9.15737Z" fill="#34A853"/>
<path d="M2.67623 5.78735C2.50499 5.27204 2.50499 4.71041 2.67623 4.18931V3.11816H1.31203C0.724114 4.29353 0.724114 5.68313 1.31203 6.85849L2.67623 5.78735Z" fill="#FBBC04"/>
<path d="M4.98212 2.46973C5.56994 2.45815 6.13494 2.68396 6.55726 3.09505L7.7329 1.90231C6.98528 1.19594 6.00368 0.808008 4.98212 0.819588C3.42981 0.819588 2.00876 1.71125 1.3125 3.11821L2.67648 4.19515C3.00178 3.20506 3.9092 2.46973 4.98212 2.46973Z" fill="#EA4335"/>
</svg>
