<svg width="22" height="14" viewBox="0 0 22 14" fill="none" xmlns="http://www.w3.org/2000/svg">
<path d="M13.3463 7.12334C13.3463 10.8352 10.3718 13.8443 6.70247 13.8443C3.03316 13.8443 0.0585938 10.8352 0.0585938 7.12334C0.0585938 3.41144 3.03316 0.402344 6.70247 0.402344C10.3718 0.402344 13.3463 3.41144 13.3463 7.12334Z" fill="#ED0006"/>
<path d="M21.9635 7.12383C21.9635 10.8357 18.989 13.8448 15.3197 13.8448C11.6503 13.8448 8.67578 10.8357 8.67578 7.12383C8.67578 3.41193 11.6503 0.402832 15.3197 0.402832C18.989 0.402832 21.9635 3.41193 21.9635 7.12383Z" fill="#0099DF"/>
<path fill-rule="evenodd" clip-rule="evenodd" d="M11.0106 12.2394C12.4393 11.0067 13.3453 9.17219 13.3453 7.12363C13.3453 5.07507 12.4393 3.24057 11.0106 2.00781C9.58178 3.24057 8.67578 5.07507 8.67578 7.12363C8.67578 9.17219 9.58178 11.0067 11.0106 12.2394Z" fill="#6C6BBD"/>
</svg>
