<svg width="23" height="14" viewBox="0 0 23 14" fill="none" xmlns="http://www.w3.org/2000/svg">
<path fill-rule="evenodd" clip-rule="evenodd" d="M11.0661 12.2393C9.90602 13.2402 8.40134 13.8443 6.75715 13.8443C3.08784 13.8443 0.113281 10.8352 0.113281 7.12334C0.113281 3.41144 3.08784 0.402344 6.75715 0.402344C8.40146 0.402344 9.90625 1.00661 11.0664 2.00761C12.2264 1.00674 13.7311 0.402563 15.3753 0.402563C19.0446 0.402563 22.0192 3.41166 22.0192 7.12356C22.0192 10.8355 19.0446 13.8446 15.3753 13.8446C13.731 13.8446 12.2262 13.2403 11.0661 12.2393Z" fill="#ED0006"/>
<path fill-rule="evenodd" clip-rule="evenodd" d="M11.0664 12.2392C12.4952 11.0064 13.4012 9.1719 13.4012 7.12334C13.4012 5.07478 12.4952 3.24028 11.0664 2.00752C12.2265 1.00658 13.7313 0.402344 15.3755 0.402344C19.0448 0.402344 22.0194 3.41144 22.0194 7.12334C22.0194 10.8352 19.0448 13.8443 15.3755 13.8443C13.7313 13.8443 12.2265 13.2401 11.0664 12.2392Z" fill="#F9A000"/>
<path fill-rule="evenodd" clip-rule="evenodd" d="M11.0652 12.2394C12.494 11.0067 13.4 9.17219 13.4 7.12363C13.4 5.07507 12.494 3.24057 11.0652 2.00781C9.63647 3.24057 8.73047 5.07507 8.73047 7.12363C8.73047 9.17219 9.63647 11.0067 11.0652 12.2394Z" fill="#FF5E00"/>
</svg>
