<svg width="16" height="17" viewBox="0 0 16 17" fill="none" xmlns="http://www.w3.org/2000/svg">
<path fill-rule="evenodd" clip-rule="evenodd" d="M0.40625 7.57878C0.40625 11.3487 3.48075 14.4232 7.28727 14.4232C7.75448 14.4232 8.22169 14.3823 8.75852 14.3353C9.35718 14.2829 10.0424 14.2229 10.9108 14.2036C12.2284 14.2036 13.6559 14.6794 15.2297 16.0702C15.3761 16.2167 15.5957 16.0336 15.4493 15.8506C13.8755 13.9108 12.448 13.5448 11.0206 13.2154C9.26373 12.8127 8.34871 11.8611 7.72649 10.7631C7.61668 10.5435 7.54348 10.5801 7.54348 10.8729C7.50688 11.3121 7.54348 11.7147 7.61668 12.1173H7.39707C4.90819 12.1173 2.85853 10.0677 2.85853 7.57878C2.85853 5.08989 4.90819 3.04023 7.39707 3.04023C9.88595 3.04023 11.9356 5.08989 11.9356 7.57878C11.9356 7.72518 11.9356 7.90819 11.899 8.09119C11.533 8.01799 10.9108 8.01799 10.435 8.05459C10.252 8.05459 10.252 8.12779 10.3984 8.16439C11.8624 8.4572 12.8873 9.37223 13.1435 11.0559C13.1435 11.1291 13.1801 11.1291 13.2167 11.0925C13.8023 10.0677 14.1683 8.85982 14.1683 7.57878C14.1683 3.77225 11.0938 0.697754 7.28727 0.697754C3.48075 0.697754 0.40625 3.80885 0.40625 7.57878ZM12.2655 10.3971C12.5217 10.5069 12.6315 10.8729 12.6315 11.056C12.6681 11.3488 12.5949 11.4952 12.4851 11.4952C12.3753 11.4952 12.2289 11.3854 12.0825 11.1292C11.936 10.8729 11.8628 10.6167 11.936 10.4703C12.0459 10.3971 12.1557 10.3605 12.2655 10.3971ZM10.7634 11.5318C10.9098 11.5318 11.0928 11.605 11.2758 11.7514C11.5686 12.0077 11.6784 12.3005 11.532 12.5201C11.4588 12.6299 11.2758 12.7031 11.1294 12.7031C10.9464 12.7031 10.7634 12.6299 10.6536 12.5201C10.3608 12.2639 10.2876 11.8978 10.4706 11.6782C10.5072 11.605 10.617 11.5318 10.7634 11.5318Z" fill="#F28A1A"/>
</svg>
