<svg width="16" height="16" viewBox="0 0 16 16" fill="none" xmlns="http://www.w3.org/2000/svg">
<g clip-path="url(#clip0_213_955)">
<path d="M8.54256 9.03967C8.35957 9.22278 8.06282 9.22278 7.87971 9.03967L5.74959 6.90955C5.6617 6.82165 5.61226 6.70239 5.61226 6.57812C5.61226 6.45373 5.6617 6.33459 5.74959 6.24658L6.12825 5.86804L5.01607 4.75586L4.10493 5.66699C3.79829 5.97363 3.79842 6.47253 4.10493 6.77917L8.01009 10.6846C8.15767 10.8322 8.35518 10.9133 8.56624 10.9133C8.7773 10.9133 8.97481 10.832 9.12239 10.6844L10.0335 9.77344L8.92134 8.66113L8.54256 9.03967Z" fill="#5D6C7B"/>
<path d="M15.3276 5.64722C15.3276 4.14441 14.7388 2.72791 13.6692 1.65845C12.5997 0.588989 11.1832 0 9.68054 0H6.33447C6.33447 0 6.33447 0 6.33435 0C4.83179 0 3.41528 0.588989 2.34595 1.65833C1.27649 2.72778 0.6875 4.14441 0.6875 5.64709V8.27722C0.6875 9.44092 1.04248 10.5604 1.71411 11.5146C2.30664 12.3564 3.10352 13.0139 4.03259 13.4309V14.9417C4.03259 15.7228 4.46997 15.9999 4.84448 16C5.11206 16 5.37976 15.8679 5.64026 15.6075L7.32324 13.9243H9.68066C11.1833 13.9243 12.5999 13.3353 13.6693 12.2659C14.7388 11.1964 15.3278 9.77991 15.3278 8.27722L15.3276 5.64722ZM11.0293 10.1049L9.78662 11.3474C9.46191 11.6721 9.02905 11.8507 8.56763 11.8507C8.1062 11.8507 7.67334 11.672 7.34863 11.3474L3.44336 7.44202C2.77136 6.76978 2.77136 5.67615 3.44336 5.00403L4.68604 3.76147C4.77393 3.67346 4.89307 3.62415 5.01746 3.62415C5.14172 3.62415 5.26099 3.67346 5.34888 3.76147L7.12402 5.53662C7.21191 5.62451 7.26123 5.74377 7.26123 5.86804C7.26123 5.99231 7.21191 6.11157 7.1239 6.19946L6.74536 6.578L8.21265 8.04529L8.59131 7.66663C8.77441 7.48364 9.07117 7.48364 9.25415 7.66675L11.0293 9.44189C11.1173 9.52979 11.1666 9.64905 11.1666 9.77332C11.1666 9.89771 11.1173 10.017 11.0293 10.1049ZM7.65259 4.55066C7.65259 4.29187 7.86243 4.08191 8.12134 4.08191C9.74548 4.08191 11.0669 5.4032 11.0669 7.02722C11.0669 7.28613 10.8571 7.49597 10.5981 7.49597C10.3394 7.49597 10.1294 7.28613 10.1294 7.02722C10.1294 5.92017 9.22864 5.01941 8.12134 5.01941C7.86243 5.01941 7.65259 4.80957 7.65259 4.55066ZM12.6063 7.49622C12.3474 7.49622 12.1376 7.28625 12.1376 7.02747C12.1377 5.95459 11.7198 4.94604 10.9613 4.18738C10.2026 3.42883 9.19409 3.01099 8.12122 3.01099C7.86243 3.01099 7.65247 2.80115 7.65247 2.54224C7.65247 2.28345 7.86243 2.07349 8.12122 2.07349C9.44446 2.07349 10.6885 2.58887 11.6241 3.52454C12.5599 4.46021 13.0752 5.70422 13.0751 7.02747C13.0751 7.28625 12.8652 7.49622 12.6063 7.49622Z" fill="#5D6C7B"/>
</g>
<defs>
<clipPath id="clip0_213_955">
<rect width="16" height="16" fill="white"/>
</clipPath>
</defs>
</svg>
