<svg width="24" height="16" viewBox="0 0 24 16" fill="none" xmlns="http://www.w3.org/2000/svg">
<path fill-rule="evenodd" clip-rule="evenodd" d="M7.54728 12.0489C7.69981 11.9697 7.95909 11.8657 8.23374 11.8657C8.86418 11.8657 9.20494 12.2914 9.20494 13.0835C9.20494 14.0089 8.74745 14.4594 8.01008 14.4594C7.74046 14.4594 7.32353 14.3752 7.01838 14.2166V10.762L7.54728 10.6382V12.0489ZM7.54133 14.0335C7.70393 14.1028 7.882 14.1126 8.00917 14.1126C8.38545 14.1126 8.67018 13.885 8.67018 13.0834C8.67018 12.4546 8.43626 12.2517 8.09559 12.2517C7.89207 12.2517 7.74476 12.3062 7.54133 12.4151V14.0335ZM2.12622 11.9297H2.16184L2.85324 14.3997H3.40238L4.22626 10.8902H3.63126L3.11261 13.5087H3.07718L2.37021 10.8902H1.91767L1.25665 13.5087H1.22104L0.651491 10.8902H0.0820312L0.905823 14.3997H1.45487L2.12622 11.9297ZM6.47764 14.2315V13.8553C6.19795 14.0187 5.9438 14.1127 5.66923 14.1127C5.14546 14.1127 4.89634 13.8503 4.89634 13.2564H6.55391V13.0733C6.55391 12.2667 6.16234 11.8657 5.52687 11.8657C4.76414 11.8657 4.37257 12.4101 4.37257 13.1624C4.37257 13.9445 4.7234 14.4594 5.57759 14.4594C5.9438 14.4594 6.24885 14.3604 6.47764 14.2315ZM6.07112 12.9248H4.90693C4.96269 12.4299 5.20155 12.1973 5.51191 12.1973C5.78648 12.1973 6.04594 12.405 6.07112 12.9248ZM11.5449 13.6572H11.5194L10.3804 10.8902H9.76515V14.3997H10.2228V11.915H10.2685L11.306 14.3997H11.6313L12.6687 11.8555H12.7145V14.3997H13.2637V10.8902H12.633L11.5449 13.6572ZM13.8219 13.1624C13.8219 12.2962 14.31 11.8657 14.9812 11.8657C15.6525 11.8657 16.1407 12.2962 16.1407 13.1624C16.1407 14.0089 15.6779 14.4594 14.9812 14.4594C14.2845 14.4594 13.8219 14.0089 13.8219 13.1624ZM15.6072 13.1624C15.6072 12.4943 15.3274 12.2122 14.9817 12.2122C14.6461 12.2122 14.3562 12.4943 14.3562 13.1624C14.3562 13.8407 14.6208 14.1127 14.9817 14.1127C15.3427 14.1127 15.6072 13.8407 15.6072 13.1624ZM17.9208 11.8655C17.3363 11.8655 16.8531 12.0981 16.6243 12.2318V14.3998H17.1532V12.4397C17.3108 12.3508 17.5702 12.2615 17.7737 12.2615C18.033 12.2615 18.2311 12.3308 18.2311 12.7219V14.3998H18.7599V12.6079C18.7599 12.0981 18.5313 11.8655 17.9208 11.8655ZM21.337 13.8553V14.2315C21.1083 14.3604 20.8033 14.4594 20.437 14.4594C19.5829 14.4594 19.232 13.9445 19.232 13.1624C19.232 12.4101 19.6237 11.8657 20.3863 11.8657C21.0221 11.8657 21.4137 12.2667 21.4137 13.0733V13.2564H19.756C19.756 13.8503 20.0051 14.1127 20.5288 14.1127C20.8033 14.1127 21.0576 14.0187 21.337 13.8553ZM19.7664 12.9248H20.9308C20.9055 12.405 20.6459 12.1973 20.3714 12.1973C20.0611 12.1973 19.8224 12.4299 19.7664 12.9248ZM23.9369 11.9497H23.3928L22.8129 13.771H22.7826L22.1318 11.9497H21.5724L22.5487 14.4245C22.4265 14.7907 22.2132 15.0582 21.8674 15.0582V15.4639C22.4519 15.4639 22.7621 15.1077 23.0165 14.4245L23.9369 11.9497Z" fill="#0068A3"/>
<path fill-rule="evenodd" clip-rule="evenodd" d="M11.6676 0.515625C12.3674 0.515625 13.0301 0.674246 13.6203 0.95586C13.713 0.998667 13.8055 1.04576 13.8982 1.09776L13.4879 1.45518L12.8715 0.834793L11.8312 1.73802L11.2133 1.08157L9.27527 2.78193L10.5177 4.11472L10.0295 4.53272L11.2532 5.86752L10.7678 6.28455L12.5165 8.17917L13.5545 7.24897L14.4519 8.24578C14.2734 8.38086 14.079 8.50797 13.8648 8.62544C13.2158 8.98567 12.4658 9.19191 11.6676 9.19191C9.21295 9.19191 7.21094 7.24293 7.21094 4.8539C7.21094 2.46434 9.21295 0.515625 11.6676 0.515625ZM10.8543 4.57949L11.9141 3.65052L12.8684 4.68234L11.8087 5.61096L10.8543 4.57949ZM12.6691 5.4333L11.6093 6.362L12.5637 7.39383L13.6235 6.46486L12.6691 5.4333ZM10.0975 2.81784L11.1572 1.88913L12.1113 2.92069L11.0515 3.8494L10.0975 2.81784ZM12.8358 1.62148L12.0409 2.31794L12.7565 3.09187L13.5514 2.39515L12.8358 1.62148ZM13.4539 5.50867L14.249 4.81194L14.9646 5.58579L14.1697 6.28234L13.4539 5.50867ZM14.9483 6.37461L14.1537 7.07142L14.8693 7.84483L15.6641 7.14828L14.9483 6.37461ZM14.4731 3.48975L15.003 3.02536L15.48 3.54114L14.9504 4.00545L14.4731 3.48975ZM14.326 1.49288L13.7961 1.95719L14.2732 2.47297L14.8031 2.00866L14.326 1.49288ZM15.1501 5.02223L15.68 4.55784L16.1571 5.07353L15.6272 5.53793L15.1501 5.02223ZM13.5697 3.17701L12.775 3.87383L13.4907 4.64724L14.2853 3.95068L13.5697 3.17701Z" fill="#0068A3"/>
</svg>
