<svg width="16" height="16" viewBox="0 0 16 16" fill="none" xmlns="http://www.w3.org/2000/svg">
<g clip-path="url(#clip0_213_958)">
<path d="M7.99571 0.00488666C3.58004 0.0058236 0.00119302 3.58621 0.00212996 8.00188C0.00244228 9.53088 0.441214 11.0277 1.26635 12.3149L0.0224304 15.5424C-0.0438116 15.714 0.0416378 15.9069 0.213286 15.9731C0.25167 15.9879 0.292427 15.9955 0.333559 15.9955C0.371724 15.9956 0.409608 15.9891 0.445493 15.9761L3.77686 14.7868C7.52502 17.1212 12.4559 15.9751 14.7903 12.2269C17.1247 8.47875 15.9786 3.54788 12.2304 1.21352C10.9598 0.422171 9.49261 0.00341878 7.99571 0.00488666Z" fill="#5D6C7B"/>
<path d="M11.8055 9.36609C11.8055 9.36609 10.9894 8.96633 10.4783 8.69983C9.90002 8.40201 9.22042 8.95968 8.90061 9.27683C8.40288 9.08563 7.94827 8.79705 7.5634 8.42799C7.19428 8.04319 6.9057 7.58858 6.71456 7.09078C7.03172 6.77031 7.58805 6.09137 7.29156 5.51306C7.02838 5.00136 6.6253 4.18519 6.6253 4.18519C6.56874 4.07294 6.45384 4.00208 6.32813 4.00195H5.66187C4.69157 4.16954 3.98608 5.01617 3.9962 6.00077C3.9962 7.04681 5.24812 9.0563 6.0923 9.90112C6.93649 10.7459 8.94596 11.9972 9.99265 11.9972C10.9773 12.0073 11.8239 11.3018 11.9915 10.3316V9.66529C11.9916 9.53824 11.9195 9.42221 11.8055 9.36609Z" fill="#F7F7F7"/>
</g>
<defs>
<clipPath id="clip0_213_958">
<rect width="16" height="16" fill="white"/>
</clipPath>
</defs>
</svg>
