<svg width="21" height="15" viewBox="0 0 21 15" fill="none" xmlns="http://www.w3.org/2000/svg">
<path d="M0.447879 11.976C0.856213 13.4243 2.10538 13.6893 2.18871 13.7401C4.24455 14.3001 15.7679 14.3018 17.8545 13.7401C19.2837 13.3268 19.5462 12.0593 19.5954 11.976C20.1395 9.08097 20.1754 5.30681 19.5704 2.02181L19.5954 2.18514C19.187 0.736807 17.9379 0.471807 17.8545 0.420974C15.8262 -0.12986 4.27288 -0.150693 2.18871 0.420974C0.759546 0.83514 0.497046 2.10181 0.447879 2.18514C-0.134621 5.22764 -0.163787 8.71847 0.447879 11.976V11.976ZM8.01955 10.1235V4.04597L13.2412 7.08931L8.01955 10.1235Z" fill="#E53935"/>
</svg>
